<?xml version="1.0" encoding="UTF-8"?>
<svg version="1.1" xmlns="http://www.w3.org/2000/svg" width="2160" height="2160">
<path d="M0 0 C54.18029919 22.30302094 98.86582399 66.6221574 138.91659546 108.07652318 C140.7379862 109.9576423 142.5655692 111.83251941 144.395401 113.70542622 C239.011856 210.58635745 239.011856 210.58635745 238.49150956 270.36475241 C238.04966491 286.17257974 235.97397796 301.69661122 232.3646698 317.0843811 C233.26874573 317.5187146 233.26874573 317.5187146 234.19108582 317.96182251 C244.21066349 323.13648478 252.74389888 332.01111975 260.87736511 339.69863892 C263.01583666 341.6910822 265.22462288 343.60080983 267.4271698 345.5218811 C279.62660934 356.47768845 292.68867557 370.13689671 301.3646698 384.0843811 C301.3646698 384.7443811 301.3646698 385.4043811 301.3646698 386.0843811 C302.23210752 385.88091757 303.09954525 385.67745403 303.99326897 385.46782494 C342.16334707 376.99885375 380.4317303 376.88770558 414.31381101 398.32992341 C448.16093497 420.18672662 477.89020442 447.81783173 506.61445653 475.88145447 C508.49137432 477.71104264 510.37432535 479.53419221 512.25936604 481.35540771 C576.90019822 543.84242275 626.24143449 608.27344017 642.17890625 750.19621629 C643.48623337 835.19346295 628.6217212 917.07455624 529.90109634 1051.24856949 C470.58510997 1112.27968443 400.40891671 1156.1781971 239.49959302 1177.81808002 C149.86448271 1179.00180087 72.47087096 1161.08749508 -30.8296283 1072.59993927 C-39.61475084 1064.02509738 -48.18141443 1055.23965653 -56.69813842 1046.39932531 C-58.50879622 1044.52347032 -60.32527916 1042.65345021 -62.14375162 1040.78517199 C-156.03993922 944.2640078 -156.03993922 944.2640078 -155.44758093 886.54748613 C-155.0974131 875.17597329 -153.913878 863.60306299 -151.33426285 852.50974464 C-150.49930568 848.54775762 -149.97865996 845.13818343 -150.6353302 841.0843811 C-153.90798983 836.53177876 -158.89620814 833.87705569 -163.6353302 831.0843811 C-164.91690049 830.09116046 -166.18366741 829.07674322 -167.40486145 828.01016235 C-167.91251038 827.57816528 -168.4201593 827.14616821 -168.94319153 826.70108032 C-169.43972229 826.27069458 -169.93625305 825.84030884 -170.4478302 825.3968811 C-171.01203674 824.90977661 -171.57624329 824.42267212 -172.157547 823.92080688 C-182.90237194 814.56359263 -193.3764011 804.93289626 -202.6353302 794.0843811 C-203.60963632 792.9715657 -204.58496863 791.85964824 -205.56111145 790.7484436 C-206.60732458 789.54848065 -207.65290101 788.34796227 -208.6978302 787.1468811 C-209.16866028 786.60990601 -209.63949036 786.07293091 -210.12458801 785.51968384 C-210.5934845 784.9751355 -211.06238098 784.43058716 -211.54548645 783.86953735 C-212.01839646 783.33173204 -212.49130648 782.79392673 -212.9785471 782.2398243 C-214.6353302 780.0843811 -214.6353302 780.0843811 -216.13445187 777.24131584 C-218.02703318 773.90972811 -219.6856495 771.54700111 -222.6353302 769.0843811 C-227.30158892 768.54165679 -231.5195807 769.4911704 -236.05058217 770.50667048 C-270.66880664 777.84516033 -304.1540674 774.13877877 -334.02910173 754.74581301 C-366.91160835 733.02460027 -396.03986461 706.18803646 -424.20245844 678.77621919 C-426.07437459 676.95788092 -427.95194575 675.14557916 -429.83134413 673.33497763 C-494.52802796 610.96031808 -543.52643883 546.64475986 -559.38503314 404.60282316 C-560.69550623 319.39640951 -546.01843001 237.21595264 -447.11249924 102.85445023 C-387.88097808 41.96520022 -317.75567708 -1.9713828 0 0 Z M-511.71420014 233.89514077 C-541.89084937 305.61567243 -546.0762301 391.2188172 -516.57707977 527.21327972 C-494.95557074 578.82706236 -451.77611331 621.57303461 -411.96026152 659.590689 C-410.13510625 661.33459508 -408.31370544 663.08234844 -406.49296427 664.83086157 C-390.68375713 679.99412203 -374.50438585 694.63855574 -357.68447453 708.67464585 C-354.25616784 711.53668986 -350.85695568 714.42836961 -347.47982563 717.35059052 C-316.86266063 743.80258456 -291.73892318 753.45256829 -251.64526272 750.65742159 C-246.29652795 750.23457061 -240.96430463 749.70760087 -235.6353302 749.0843811 C-236.91244965 746.68745145 -238.18983091 744.29066195 -239.46736145 741.89395142 C-239.82640564 741.2200235 -240.18544983 740.54609558 -240.55537415 739.85174561 C-242.46440499 736.27081196 -244.38216158 732.69518541 -246.3228302 729.1312561 C-268.57375915 688.00343798 -282.51394761 639.71909641 -282.87361145 592.82266235 C-282.88335999 591.76606415 -282.89310852 590.70946594 -282.90315247 589.62084961 C-283.07284163 566.45764237 -282.93421695 543.90851099 -278.6353302 521.0843811 C-278.44277649 520.04201294 -278.25022278 518.99964478 -278.05183411 517.9256897 C-266.89670387 459.14924325 -239.96281113 404.32593276 -199.6353302 360.0843811 C-199.00916809 359.39650513 -198.38300598 358.70862915 -197.73786926 357.99990845 C-195.77474276 355.85331672 -193.80169208 353.71647071 -191.8228302 351.5843811 C-191.22478577 350.93767456 -190.62674133 350.29096802 -190.01057434 349.62466431 C-186.33684537 345.71375708 -182.49545319 342.1192862 -178.42366028 338.62539673 C-176.35089509 336.83928153 -174.37389665 334.96334153 -172.3853302 333.0843811 C-136.17378057 300.44377012 -90.4367849 277.7399716 -43.6353302 265.0843811 C-42.82096497 264.86298462 -42.00659973 264.64158813 -41.16755676 264.41348267 C-19.50521895 258.63516224 3.18492611 255.01821153 25.62638855 254.84609985 C26.68294144 254.83635132 27.73949432 254.82660278 28.82806396 254.81655884 C52.01822423 254.64666678 74.50686024 254.87527924 97.3646698 259.0843811 C98.41283875 259.26630005 99.46100769 259.44821899 100.54093933 259.63565063 C137.31059139 266.09791554 174.20806917 279.5115477 205.87565613 299.39346313 C208.88699879 301.43811823 208.88699879 301.43811823 212.3646698 302.0843811 C216.74123703 262.02477373 216.51524356 231.39025345 190.49717706 198.53028738 C186.98907979 194.16428429 183.33818601 189.92295764 179.67242265 185.68929386 C176.76151231 182.32434864 173.91208103 178.91022196 171.06583214 175.4905777 C157.13934437 158.81353064 142.52656383 142.85497053 127.46858722 127.19655305 C125.73968313 125.39689498 124.01501411 123.5932618 122.29110479 121.78881979 C63.23005967 60.05474025 2.30273946 12.73440506 -130.15718079 -2.25964355 C-210.84622199 -3.80564434 -288.96122686 9.64788395 -511.71420014 233.89514077 Z M316.3646698 406.0843811 C317.69234048 409.4651729 319.12695315 412.61797601 320.9037323 415.7875061 C321.64466125 417.12047729 321.64466125 417.12047729 322.40055847 418.4803772 C323.18716858 419.89310913 323.18716858 419.89310913 323.9896698 421.3343811 C341.14740447 452.58094576 353.17985903 485.93421731 359.3646698 521.0843811 C359.56221863 522.15365845 359.75976746 523.22293579 359.96330261 524.32461548 C366.39512186 560.30490711 365.95623248 599.16909502 359.3646698 635.0843811 C359.18806824 636.1165979 359.01146667 637.1488147 358.82951355 638.21231079 C352.03550195 677.52950755 336.65777877 716.36715687 315.3646698 750.0843811 C314.7356073 751.08598267 314.1065448 752.08758423 313.4584198 753.11953735 C303.59323215 768.31443443 292.56508546 782.69982776 280.3646698 796.0843811 C279.73850769 796.77225708 279.11234558 797.46013306 278.46720886 798.16885376 C276.50408236 800.31544548 274.53103168 802.4522915 272.5521698 804.5843811 C271.95412537 805.23108765 271.35608093 805.87779419 270.73991394 806.5440979 C267.06618497 810.45500512 263.22479279 814.04947601 259.15299988 817.54336548 C257.08023469 819.32948068 255.10323625 821.20542068 253.1146698 823.0843811 C216.90312017 855.72499209 171.1661245 878.4287906 124.3646698 891.0843811 C123.55030457 891.30577759 122.73593933 891.52717407 121.89689636 891.75527954 C100.23455855 897.53359997 77.54441349 901.15055068 55.10295105 901.32266235 C54.04639816 901.33241089 52.98984528 901.34215942 51.90127563 901.35220337 C28.71111537 901.52209543 6.22247936 901.29348297 -16.6353302 897.0843811 C-17.68349915 896.90246216 -18.73166809 896.72054321 -19.81159973 896.53311157 C-57.27030288 889.94974596 -95.05984165 876.0159122 -127.2056427 855.59609985 C-129.29991089 853.99633443 -129.29991089 853.99633443 -130.6353302 854.0843811 C-135.17771914 893.26682536 -134.06469014 922.31851886 -108.63118106 954.42950195 C-105.0979842 958.82797369 -101.42723427 963.10678547 -97.74117923 967.37721562 C-94.81645928 970.76786916 -91.94910005 974.20454874 -89.08418465 977.64573479 C-75.07012184 994.42314857 -60.37987679 1010.49879997 -45.24822205 1026.27139205 C-43.51062344 1028.08407519 -41.77698294 1029.90047441 -40.04394007 1031.71751261 C19.16945792 1093.70741692 80.20354465 1141.46655739 213.0110321 1156.44223022 C293.50726748 1157.9277111 371.58748016 1144.52253388 500.9195137 1050.17561722 C558.64526645 994.05911776 600.12847029 927.60149751 620.6603486 775.37005779 C621.83702315 690.00455964 604.7178449 617.07327096 521.70500183 520.84609985 C512.94221588 511.85054741 503.93557259 503.10734397 494.85554326 494.43362045 C493.05224151 492.70944967 491.25302522 490.98110795 489.45464993 489.25180054 C473.83945751 474.2532313 457.85457209 459.78198434 441.21197875 445.92965323 C437.82356872 443.10769479 434.466347 440.25427988 431.13273883 437.36782781 C399.02003876 409.60394037 372.9357353 401.71629443 331.18292855 404.67943171 C326.23480867 405.06140982 321.29792651 405.54541602 316.3646698 406.0843811 Z " fill="#FDFDFE" transform="translate(1039.6353302001953,501.9156188964844)"/>
<path d="M0 0 C0.86028809 -0.00376648 1.72057617 -0.00753296 2.60693359 -0.01141357 C18.72285378 -0.04713284 34.95911948 0.74558424 50.75 4.1875 C51.5735498 4.36039551 52.39709961 4.53329102 53.24560547 4.71142578 C74.27940474 9.21371194 94.08267968 15.95779673 113.4375 25.3125 C114.63874512 25.89257812 114.63874512 25.89257812 115.86425781 26.484375 C135.96447575 36.32536297 153.62229375 49.14381862 170.11328125 64.2109375 C172.14315015 66.04634837 174.2145936 67.80631444 176.3125 69.5625 C204.46740134 94.20511988 224.11917228 128.86528572 237.4375 163.3125 C237.70933105 164.01439453 237.98116211 164.71628906 238.26123047 165.43945312 C242.89388606 177.6688923 245.69553447 190.55371447 248.4375 203.3125 C248.62119141 204.14362305 248.80488281 204.97474609 248.99414062 205.83105469 C251.72350818 218.73302521 251.7183942 231.74589324 251.75 244.875 C251.75564972 246.16543213 251.75564972 246.16543213 251.76141357 247.48193359 C251.79713284 263.59785378 251.00441576 279.83411948 247.5625 295.625 C247.38960449 296.4485498 247.21670898 297.27209961 247.03857422 298.12060547 C242.53628806 319.15440474 235.79220327 338.95767968 226.4375 358.3125 C225.85742188 359.51374512 225.85742188 359.51374512 225.265625 360.73925781 C215.42463703 380.83947575 202.60618138 398.49729375 187.5390625 414.98828125 C185.70365163 417.01815015 183.94368556 419.0895936 182.1875 421.1875 C143.9232196 464.90553991 81.99818989 492.1700398 24.57006836 496.09423828 C0.83372302 497.46157491 -23.28475918 497.51109067 -46.5625 492.3125 C-47.54798828 492.09287598 -48.53347656 491.87325195 -49.54882812 491.64697266 C-63.2006538 488.50527401 -76.49090514 484.33850836 -89.5625 479.3125 C-90.23764648 479.0542041 -90.91279297 478.7959082 -91.60839844 478.52978516 C-118.2143171 468.13705677 -142.25479641 451.58578648 -163.23828125 432.4140625 C-165.26815015 430.57865163 -167.3395936 428.81868556 -169.4375 427.0625 C-197.84148351 402.20187057 -218.47264003 366.60280323 -230.81933594 331.39941406 C-231.72963685 328.84315512 -232.7464101 326.33332818 -233.75 323.8125 C-237.88085201 312.27901497 -240.24296165 299.92686229 -242.3125 287.875 C-242.42795166 287.21556396 -242.54340332 286.55612793 -242.66235352 285.87670898 C-247.1918362 257.77605939 -246.75565718 226.0436135 -240.5625 198.3125 C-240.34287598 197.32701172 -240.12325195 196.34152344 -239.89697266 195.32617188 C-236.75527401 181.6743462 -232.58850836 168.38409486 -227.5625 155.3125 C-227.3042041 154.63735352 -227.0459082 153.96220703 -226.77978516 153.26660156 C-217.69784562 130.01636971 -203.74932037 108.23250479 -187.5625 89.3125 C-186.58020397 88.14497292 -185.59846521 86.97697683 -184.6171875 85.80859375 C-176.85033562 76.60311881 -168.79199228 68.07630247 -159.5625 60.3125 C-159.03720703 59.86277832 -158.51191406 59.41305664 -157.97070312 58.94970703 C-147.13378986 49.70240729 -135.71988373 41.72990815 -123.5625 34.3125 C-122.81774414 33.85746094 -122.07298828 33.40242187 -121.30566406 32.93359375 C-108.66856326 25.32293529 -95.30293106 19.62496336 -81.5625 14.3125 C-80.86060547 14.04066895 -80.15871094 13.76883789 -79.43554688 13.48876953 C-67.2061077 8.85611394 -54.32128553 6.05446553 -41.5625 3.3125 C-40.31581543 3.03696289 -40.31581543 3.03696289 -39.04394531 2.75585938 C-26.14197479 0.02649182 -13.12910676 0.0316058 0 0 Z " fill="#000000" transform="translate(1076.5625,831.6875)"/>
<path d="M0 0 C2.33626816 0.55042031 4.67638823 1.06616059 7.02392578 1.56591797 C21.83494074 4.77029851 36.51753505 9.2938746 50.14892578 15.96044922 C52.76624087 17.22252997 55.37991975 18.40712639 58.04736328 19.55419922 C130.20912314 50.72521449 187.76839364 112.67934482 216.88330078 185.33935547 C217.4406854 186.7593816 217.99677815 188.17991584 218.55126953 189.60107422 C219.23769531 191.32390625 219.23769531 191.32390625 219.93798828 193.08154297 C224.06550263 203.97974331 226.79868509 215.29325903 229.55126953 226.60107422 C229.9000415 228.01984863 229.9000415 228.01984863 230.25585938 229.46728516 C239.22957236 266.47983648 240.85020458 305.98567099 234.55126953 343.60107422 C234.2807832 345.40301445 234.01125172 347.20509826 233.74267578 349.00732422 C226.45100654 395.33013177 206.91316263 441.27245953 178.55126953 478.60107422 C178.10396484 479.19114258 177.65666016 479.78121094 177.19580078 480.38916016 C171.92376645 487.30409034 166.47872561 493.98081329 160.58642578 500.38232422 C158.75582533 502.37806521 156.9929047 504.41338033 155.23876953 506.47607422 C147.99728832 514.77851663 140.01968221 522.5605575 131.55126953 529.60107422 C130.78000732 530.25897949 130.78000732 530.25897949 129.99316406 530.93017578 C118.80304841 540.46284334 106.9542842 548.72483152 94.55126953 556.60107422 C93.48320068 557.28314941 93.48320068 557.28314941 92.39355469 557.97900391 C71.56967036 571.13998205 48.91342422 580.95527814 25.55126953 588.60107422 C24.66358887 588.89594727 23.7759082 589.19082031 22.86132812 589.49462891 C10.26946916 593.63709547 -2.38566848 596.41074207 -15.44873047 598.60107422 C-16.29951172 598.74673828 -17.15029297 598.89240234 -18.02685547 599.04248047 C-20.52023714 599.46696723 -23.01504888 599.88089562 -25.51123047 600.28857422 C-26.23576416 600.4080542 -26.96029785 600.52753418 -27.70678711 600.65063477 C-102.1769895 612.31749234 -182.51273071 590.86670575 -243.42944336 547.43774414 C-246.47851369 545.21281277 -249.47284771 542.92272439 -252.44873047 540.60107422 C-253.09116699 540.10140137 -253.73360352 539.60172852 -254.39550781 539.08691406 C-319.10354223 488.42183274 -360.75663625 415.0411178 -370.98388672 333.38305664 C-372.39564993 321.54970924 -372.85152623 309.82506702 -372.82373047 297.91357422 C-372.82285431 296.98453278 -372.82197815 296.05549133 -372.82107544 295.09829712 C-372.70778186 258.34374208 -366.36432127 221.72855368 -352.44873047 187.60107422 C-352.12815674 186.81007324 -351.80758301 186.01907227 -351.47729492 185.20410156 C-343.05771391 164.59453328 -333.10814711 144.93943775 -320.44873047 126.60107422 C-320.01818359 125.97378418 -319.58763672 125.34649414 -319.14404297 124.70019531 C-313.61742697 116.68869553 -307.73452577 109.03533457 -301.44873047 101.60107422 C-300.53573777 100.50100654 -299.6229889 99.40073647 -298.71044922 98.30029297 C-289.13113199 86.83889326 -278.92822546 76.02263197 -267.16357422 66.77294922 C-265.34146416 65.31526117 -263.56194005 63.80283068 -261.82763672 62.24169922 C-244.33444274 46.57615237 -223.33095505 34.15226786 -202.44873047 23.60107422 C-201.30138428 23.0180957 -201.30138428 23.0180957 -200.13085938 22.42333984 C-189.85359141 17.25425971 -179.37096746 13.18253493 -168.44873047 9.60107422 C-167.71992676 9.35647461 -166.99112305 9.111875 -166.24023438 8.85986328 C-160.67516081 6.99473294 -155.08024657 5.25456954 -149.44873047 3.60107422 C-148.59053711 3.34825684 -147.73234375 3.09543945 -146.84814453 2.83496094 C-99.18616397 -10.87852452 -48.13297566 -11.48756294 0 0 Z M-117.44873047 53.60107422 C-118.43421875 53.82069824 -119.41970703 54.04032227 -120.43505859 54.26660156 C-134.08688426 57.40830021 -147.37713561 61.57506586 -160.44873047 66.60107422 C-161.12387695 66.85937012 -161.79902344 67.11766602 -162.49462891 67.38378906 C-189.10054757 77.77651745 -213.14102688 94.32778774 -234.12451172 113.49951172 C-236.15438062 115.33492259 -238.22582407 117.09488866 -240.32373047 118.85107422 C-268.47863181 143.4936941 -288.13040275 178.15385994 -301.44873047 212.60107422 C-301.72056152 213.30296875 -301.99239258 214.00486328 -302.27246094 214.72802734 C-306.90511652 226.95746652 -309.70676494 239.84228869 -312.44873047 252.60107422 C-312.63242187 253.43219727 -312.81611328 254.26332031 -313.00537109 255.11962891 C-315.73473865 268.02159943 -315.72962467 281.03446746 -315.76123047 294.16357422 C-315.76499695 295.0238623 -315.76876343 295.88415039 -315.77264404 296.77050781 C-315.80836211 312.88588635 -315.01707789 329.12341665 -311.57373047 344.91357422 C-311.39938477 345.74074951 -311.22503906 346.5679248 -311.04541016 347.42016602 C-309.44196345 354.88919411 -307.68802425 362.29434778 -305.44873047 369.60107422 C-305.20203613 370.40786621 -304.9553418 371.2146582 -304.70117188 372.04589844 C-297.6844441 394.49694058 -287.78577695 416.18237822 -274.44873047 435.60107422 C-273.8524585 436.48593506 -273.8524585 436.48593506 -273.24414062 437.38867188 C-266.95412057 446.6908142 -259.9243051 455.23232639 -252.44873047 463.60107422 C-251.9455127 464.16745605 -251.44229492 464.73383789 -250.92382812 465.31738281 C-223.9945927 495.50341866 -189.99625925 517.08407179 -152.44873047 531.60107422 C-151.74683594 531.87290527 -151.04494141 532.14473633 -150.32177734 532.42480469 C-138.09233817 537.05746027 -125.207516 539.85910869 -112.44873047 542.60107422 C-111.61760742 542.78476563 -110.78648437 542.96845703 -109.93017578 543.15771484 C-97.02820526 545.8870824 -84.01533722 545.88196842 -70.88623047 545.91357422 C-69.59579834 545.91922394 -69.59579834 545.91922394 -68.27929688 545.92498779 C-52.16337669 545.96070706 -35.92711099 545.16798998 -20.13623047 541.72607422 C-19.31268066 541.55317871 -18.48913086 541.3802832 -17.640625 541.20214844 C3.39317427 536.69986227 23.19644921 529.95577749 42.55126953 520.60107422 C43.35209961 520.21435547 44.15292969 519.82763672 44.97802734 519.42919922 C65.07824528 509.58821124 82.73606328 496.7697556 99.22705078 481.70263672 C101.25691968 479.86722585 103.32836313 478.10725978 105.42626953 476.35107422 C138.48437764 447.41691521 161.39758326 404.57415676 172.55126953 362.60107422 C172.73141602 361.94187988 172.9115625 361.28268555 173.09716797 360.60351562 C175.17935227 352.95817164 176.8941249 345.28587044 178.23876953 337.47607422 C178.41786865 336.45719116 178.41786865 336.45719116 178.60058594 335.41772461 C183.18322412 307.24212645 182.7628239 275.41456483 176.55126953 247.60107422 C176.33164551 246.61558594 176.11202148 245.63009766 175.88574219 244.61474609 C172.74404354 230.96292042 168.57727789 217.67266908 163.55126953 204.60107422 C163.16382568 203.58835449 163.16382568 203.58835449 162.76855469 202.55517578 C152.3758263 175.94925712 135.82455601 151.90877781 116.65283203 130.92529297 C114.81742116 128.89542407 113.05745509 126.82398062 111.30126953 124.72607422 C82.36711053 91.66796611 39.52435208 68.75476049 -2.44873047 57.60107422 C-3.43752197 57.33085449 -3.43752197 57.33085449 -4.44628906 57.05517578 C-12.09163304 54.97299148 -19.76393425 53.25821885 -27.57373047 51.91357422 C-28.59261353 51.7344751 -28.59261353 51.7344751 -29.63208008 51.55175781 C-57.80767823 46.96911963 -89.63523985 47.38951985 -117.44873047 53.60107422 Z " fill="#5566CC" transform="translate(1147.44873046875,782.39892578125)"/>
<path d="M0 0 C3.33822123 3.00490954 6.59151629 6.09302036 9.8203125 9.21484375 C10.47354492 9.84616211 11.12677734 10.47748047 11.79980469 11.12792969 C19.99455844 19.09130215 27.90862551 27.08836203 34.8203125 36.21484375 C35.22491699 36.73771973 35.62952148 37.2605957 36.04638672 37.79931641 C64.48358512 74.62362098 82.31838257 117.39815628 89.8203125 163.21484375 C89.93213867 163.89135986 90.04396484 164.56787598 90.15917969 165.26489258 C100.48144092 232.5053368 81.1051489 304.91754441 41.32226562 359.50878906 C38.88001027 362.79106593 36.36891131 366.01465318 33.8203125 369.21484375 C33.36785156 369.78444824 32.91539062 370.35405273 32.44921875 370.94091797 C20.32965829 386.01571907 6.3527954 400.65101287 -9.1796875 412.21484375 C-10.26465894 413.05164784 -11.3492704 413.88891879 -12.43359375 414.7265625 C-67.36063371 456.60275619 -139.67334504 477.12793694 -208.48291016 467.98242188 C-212.80183114 467.32190301 -217.096674 466.57302321 -221.38720703 465.74853516 C-223.88502277 465.27115929 -226.3839621 464.84871004 -228.89453125 464.4453125 C-288.90002824 454.12619037 -348.59541787 416.5222495 -385.1796875 368.21484375 C-385.58429199 367.69196777 -385.98889648 367.1690918 -386.40576172 366.63037109 C-429.47394024 310.85990803 -449.08176963 239.37086731 -441.1171875 169.33984375 C-437.33039653 140.42905912 -428.93473237 112.39062535 -416.1796875 86.21484375 C-415.50462158 84.82579834 -415.50462158 84.82579834 -414.81591797 83.40869141 C-408.0041117 69.54405653 -400.35673217 56.64257332 -391.1796875 44.21484375 C-390.46232422 43.24297119 -390.46232422 43.24297119 -389.73046875 42.25146484 C-383.11197851 33.38278062 -375.86765494 25.16624811 -368.1796875 17.21484375 C-367.54836914 16.56161133 -366.91705078 15.90837891 -366.26660156 15.23535156 C-358.3032291 7.04059781 -350.30616922 -0.87346926 -341.1796875 -7.78515625 C-340.65681152 -8.18976074 -340.13393555 -8.59436523 -339.59521484 -9.01123047 C-256.0064617 -73.56180338 -143.08322377 -81.8151898 0 0 Z M-225.1796875 -41.78515625 C-226.16517578 -41.56553223 -227.15066406 -41.3459082 -228.16601562 -41.11962891 C-241.8178413 -37.97793026 -255.10809264 -33.81116461 -268.1796875 -28.78515625 C-268.85483398 -28.52686035 -269.52998047 -28.26856445 -270.22558594 -28.00244141 C-296.8315046 -17.60971302 -320.87198391 -1.05844273 -341.85546875 18.11328125 C-343.88533765 19.94869212 -345.9567811 21.70865819 -348.0546875 23.46484375 C-376.20958884 48.10746363 -395.86135978 82.76762947 -409.1796875 117.21484375 C-409.45151855 117.91673828 -409.72334961 118.61863281 -410.00341797 119.34179688 C-414.63607356 131.57123605 -417.43772197 144.45605822 -420.1796875 157.21484375 C-420.36337891 158.0459668 -420.54707031 158.87708984 -420.73632812 159.73339844 C-423.46569568 172.63536896 -423.4605817 185.64823699 -423.4921875 198.77734375 C-423.49595398 199.63763184 -423.49972046 200.49791992 -423.50360107 201.38427734 C-423.53931914 217.49965588 -422.74803492 233.73718618 -419.3046875 249.52734375 C-419.1303418 250.35451904 -418.95599609 251.18169434 -418.77636719 252.03393555 C-417.17292048 259.50296364 -415.41898128 266.90811731 -413.1796875 274.21484375 C-412.93299316 275.02163574 -412.68629883 275.82842773 -412.43212891 276.65966797 C-405.41540113 299.11071012 -395.51673398 320.79614775 -382.1796875 340.21484375 C-381.58341553 341.09970459 -381.58341553 341.09970459 -380.97509766 342.00244141 C-374.68507761 351.30458373 -367.65526213 359.84609592 -360.1796875 368.21484375 C-359.67646973 368.78122559 -359.17325195 369.34760742 -358.65478516 369.93115234 C-331.72554973 400.1171882 -297.72721628 421.69784132 -260.1796875 436.21484375 C-259.47779297 436.4866748 -258.77589844 436.75850586 -258.05273438 437.03857422 C-245.8232952 441.67122981 -232.93847303 444.47287822 -220.1796875 447.21484375 C-219.34856445 447.39853516 -218.51744141 447.58222656 -217.66113281 447.77148438 C-204.75916229 450.50085193 -191.74629426 450.49573795 -178.6171875 450.52734375 C-177.32675537 450.53299347 -177.32675537 450.53299347 -176.01025391 450.53875732 C-159.89433372 450.57447659 -143.65806802 449.78175951 -127.8671875 446.33984375 C-127.0436377 446.16694824 -126.22008789 445.99405273 -125.37158203 445.81591797 C-104.33778276 441.31363181 -84.53450782 434.56954702 -65.1796875 425.21484375 C-64.37885742 424.828125 -63.57802734 424.44140625 -62.75292969 424.04296875 C-42.65271175 414.20198078 -24.99489375 401.38352513 -8.50390625 386.31640625 C-6.47403735 384.48099538 -4.4025939 382.72102931 -2.3046875 380.96484375 C30.75342061 352.03068474 53.66662623 309.18792629 64.8203125 267.21484375 C65.00045898 266.55564941 65.18060547 265.89645508 65.36621094 265.21728516 C67.44839524 257.57194118 69.16316787 249.89963997 70.5078125 242.08984375 C70.68691162 241.07096069 70.68691162 241.07096069 70.86962891 240.03149414 C75.45226709 211.85589598 75.03186687 180.02833437 68.8203125 152.21484375 C68.60068848 151.22935547 68.38106445 150.24386719 68.15478516 149.22851562 C65.01308651 135.57668995 60.84632086 122.28643861 55.8203125 109.21484375 C55.43286865 108.20212402 55.43286865 108.20212402 55.03759766 107.16894531 C44.64486927 80.56302665 28.09359898 56.52254734 8.921875 35.5390625 C7.08646413 33.5091936 5.32649806 31.43775015 3.5703125 29.33984375 C-25.36384651 -3.71826436 -68.20660496 -26.63146998 -110.1796875 -37.78515625 C-111.168479 -38.05537598 -111.168479 -38.05537598 -112.17724609 -38.33105469 C-119.82259007 -40.41323899 -127.49489128 -42.12801162 -135.3046875 -43.47265625 C-136.32357056 -43.65175537 -136.32357056 -43.65175537 -137.36303711 -43.83447266 C-165.53863527 -48.41711084 -197.36619688 -47.99671062 -225.1796875 -41.78515625 Z " fill="#FCFCFC" transform="translate(1255.1796875,877.78515625)"/>
<path d="M0 0 C0.66 0.33 1.32 0.66 2 1 C-6.58 9.58 -15.16 18.16 -24 27 C-24.66 26.67 -25.32 26.34 -26 26 C-18.31840508 17.58420842 -10.62162204 9.46375957 -2 2 C-1.34 1.34 -0.68 0.68 0 0 Z " fill="#D0E0FB" transform="translate(866,835)"/>
</svg>
